<svg width="18" height="18" viewBox="0 0 18 18" fill="none" xmlns="http://www.w3.org/2000/svg">
<path d="M1 5.00117H14L12.4 6.20117C12.2949 6.27996 12.2064 6.37867 12.1395 6.49167C12.0726 6.60467 12.0286 6.72974 12.0101 6.85974C11.9915 6.98975 11.9987 7.12213 12.0313 7.24935C12.0639 7.37656 12.1212 7.49611 12.2 7.60117C12.2931 7.72536 12.4139 7.82617 12.5528 7.89559C12.6916 7.96502 12.8448 8.00117 13 8.00117C13.2164 8.00117 13.4269 7.93099 13.6 7.80117L17.6 4.80117C17.7223 4.70784 17.8214 4.58756 17.8897 4.44967C17.9579 4.31178 17.9934 4.16001 17.9934 4.00617C17.9934 3.85232 17.9579 3.70055 17.8897 3.56266C17.8214 3.42478 17.7223 3.30449 17.6 3.21117L13.74 0.211166C13.5305 0.0480575 13.2647 -0.0251383 13.0013 0.00768058C12.7378 0.0404994 12.4981 0.176645 12.335 0.386166C12.1719 0.595687 12.0987 0.86142 12.1315 1.12491C12.1643 1.3884 12.3005 1.62806 12.51 1.79117L14.08 3.00117H1C0.734784 3.00117 0.48043 3.10652 0.292893 3.29406C0.105357 3.4816 0 3.73595 0 4.00117C0 4.26638 0.105357 4.52074 0.292893 4.70827C0.48043 4.89581 0.734784 5.00117 1 5.00117Z" fill="black"/>
<path d="M17 12.0012H3.99998L5.59998 10.8012C5.81216 10.642 5.95242 10.4051 5.98993 10.1426C6.02744 9.88003 5.95911 9.61334 5.79998 9.40116C5.64085 9.18899 5.40395 9.04872 5.1414 9.01121C4.87885 8.97371 4.61216 9.04203 4.39998 9.20116L0.399982 12.2012C0.277675 12.2945 0.17855 12.4148 0.110319 12.5527C0.0420882 12.6905 0.0065918 12.8423 0.0065918 12.9962C0.0065918 13.15 0.0420882 13.3018 0.110319 13.4397C0.17855 13.5776 0.277675 13.6978 0.399982 13.7912L4.25998 16.7912C4.43453 16.9266 4.64903 17.0005 4.86998 17.0012C5.0227 17.0008 5.17331 16.9655 5.31025 16.8979C5.44719 16.8302 5.56682 16.7322 5.65998 16.6112C5.82237 16.4027 5.89565 16.1384 5.86379 15.8761C5.83194 15.6138 5.69755 15.3747 5.48998 15.2112L3.91998 14.0012H17C17.2652 14.0012 17.5196 13.8958 17.7071 13.7083C17.8946 13.5207 18 13.2664 18 13.0012C18 12.7359 17.8946 12.4816 17.7071 12.2941C17.5196 12.1065 17.2652 12.0012 17 12.0012Z" fill="black"/>
</svg>
