<svg width="144" height="24" viewBox="0 0 144 24" fill="none" xmlns="http://www.w3.org/2000/svg">
<path d="M35.0761 23.6798H41.7148L34.5285 0.337097H26.9486L19.8051 23.6798H26.2215L27.3765 18.7247H33.8783L35.0761 23.6798ZM28.5057 13.9551L28.8821 12.3371C29.3869 10.1123 30.0114 7.69385 30.5247 5.31744H30.6702C31.1749 7.69385 31.8678 10.1123 32.3812 12.3371L32.7576 13.9551H28.5057Z" fill="white"/>
<path d="M66.4392 0.337097H75.3276C80.4612 0.337097 84.8068 2.20788 84.8068 8.09832C84.8068 13.8118 80.2896 16.2893 75.3276 16.2893H72.7186V23.6798H66.4392V0.337097ZM74.9942 11.4017C77.4755 11.4017 78.6474 10.1798 78.6474 8.09832C78.6474 6.01687 77.3301 5.31744 74.9942 5.31744H72.7186V11.4017H74.9942Z" fill="white"/>
<path d="M88.5288 0.337097H105.639V5.31744H94.7995V9.41295H104.15V14.3258H94.7995V18.5393H105.973V23.6798H88.5288V0.337097Z" fill="white"/>
<path d="M130.038 23.6798L125.675 14.1321C126.678 13.4284 127.485 12.486 128.019 11.3927C128.553 10.2993 128.797 9.09065 128.729 7.87921C128.729 2.06462 124.349 0.337097 119.25 0.337097H110.421V23.6798H116.692V15.8512H119.258H120.012L123.082 23.6966L130.038 23.6798ZM118.805 10.9551H116.692V5.31744H118.805C121.286 5.31744 122.604 5.87362 122.604 7.84554C122.604 9.81742 121.286 10.9551 118.805 10.9551Z" fill="white"/>
<path d="M138.054 23.7135C141.338 23.7135 144 21.0913 144 17.8567C144 14.6221 141.338 12 138.054 12C134.771 12 132.108 14.6221 132.108 17.8567C132.108 21.0913 134.771 23.7135 138.054 23.7135Z" fill="#77BA9C"/>
<path d="M6.47623 16.6517C6.53517 17.3293 6.86266 17.9569 7.38784 18.3985C7.91298 18.8401 8.59361 19.0602 9.28232 19.0112C10.9934 19.0112 12.0029 18.2275 12.0029 17.0646C12.0029 15.3792 9.3251 14.8904 7.10934 14.25C2.56654 12.9017 0 11.1404 0 7.27249C0 3.40449 4.12357 0 9.23955 0C15.2281 0 18.1112 3.30337 18.4791 7.46626H12.2253C12.2253 5.99157 10.9506 4.8118 8.46961 5.22472C8.0008 5.29317 7.5661 5.50622 7.22795 5.83326C6.88976 6.16031 6.66553 6.58451 6.58745 7.04495C6.31369 8.97473 8.94013 9.27812 11.3698 9.86795C16.212 11.0646 18.4791 13.2388 18.4791 16.7275C18.4791 20.7051 14.3983 24 9.28232 24C3.35361 24 0 20.7051 0 16.6517H6.47623Z" fill="white"/>
<path d="M44.3241 0.337097H53.2215C58.3545 0.337097 62.7006 2.20788 62.7006 8.09832C62.7006 13.8118 58.1834 16.2893 53.2215 16.2893H50.5951V23.6798H44.3241V0.337097ZM52.9306 11.4017C55.4116 11.4017 56.5751 10.1798 56.5751 8.09832C56.5751 6.01687 55.2661 5.31744 52.9306 5.31744H50.5951V11.4017H52.9306Z" fill="white"/>
</svg>
