<svg width="14" height="20" viewBox="0 0 14 20" fill="none" xmlns="http://www.w3.org/2000/svg">
<path d="M7 13C8.06087 13 9.07828 12.5786 9.82843 11.8284C10.5786 11.0783 11 10.0609 11 9V4C11 2.93913 10.5786 1.92172 9.82843 1.17157C9.07828 0.421427 8.06087 0 7 0C5.93913 0 4.92172 0.421427 4.17157 1.17157C3.42143 1.92172 3 2.93913 3 4V9C3 10.0609 3.42143 11.0783 4.17157 11.8284C4.92172 12.5786 5.93913 13 7 13ZM5 4C5 3.46957 5.21071 2.96086 5.58579 2.58579C5.96086 2.21071 6.46957 2 7 2C7.53043 2 8.03914 2.21071 8.41421 2.58579C8.78929 2.96086 9 3.46957 9 4V9C9 9.53043 8.78929 10.0391 8.41421 10.4142C8.03914 10.7893 7.53043 11 7 11C6.46957 11 5.96086 10.7893 5.58579 10.4142C5.21071 10.0391 5 9.53043 5 9V4Z" fill="#D3D6D6"/>
<path d="M14 9C14 8.73478 13.8946 8.48043 13.7071 8.29289C13.5196 8.10536 13.2652 8 13 8C12.7348 8 12.4804 8.10536 12.2929 8.29289C12.1054 8.48043 12 8.73478 12 9C12 10.3261 11.4732 11.5979 10.5355 12.5355C9.59785 13.4732 8.32608 14 7 14C5.67392 14 4.40215 13.4732 3.46447 12.5355C2.52678 11.5979 2 10.3261 2 9C2 8.73478 1.89464 8.48043 1.70711 8.29289C1.51957 8.10536 1.26522 8 1 8C0.734784 8 0.48043 8.10536 0.292893 8.29289C0.105357 8.48043 0 8.73478 0 9C0.00197111 10.6818 0.609407 12.3068 1.71118 13.5775C2.81295 14.8482 4.3354 15.6797 6 15.92V18H3.89C3.65396 18 3.42758 18.0938 3.26068 18.2607C3.09377 18.4276 3 18.654 3 18.89V19.11C3 19.346 3.09377 19.5724 3.26068 19.7393C3.42758 19.9062 3.65396 20 3.89 20H10.11C10.346 20 10.5724 19.9062 10.7393 19.7393C10.9062 19.5724 11 19.346 11 19.11V18.89C11 18.654 10.9062 18.4276 10.7393 18.2607C10.5724 18.0938 10.346 18 10.11 18H8V15.92C9.6646 15.6797 11.187 14.8482 12.2888 13.5775C13.3906 12.3068 13.998 10.6818 14 9Z" fill="#D3D6D6"/>
</svg>
